// online source

#define kblack_width 80
#define kblack_height 80
static char kblack_bits[] = {
  0x00, 0x00, 0x00, 0x00, 0x00, 0x00, 0x00, 0x00, 0x00, 0x00, 0x00, 0x00, 
  0x00, 0x00, 0x00, 0x00, 0x00, 0x00, 0x00, 0x00, 0x00, 0x00, 0x00, 0x00, 
  0x00, 0x00, 0x00, 0x00, 0x00, 0x00, 0x00, 0x00, 0x00, 0x00, 0x00, 0x00, 
  0x00, 0x00, 0x00, 0x00, 0x00, 0x00, 0x00, 0x00, 0x00, 0x00, 0x00, 0x00, 
  0x00, 0x00, 0x00, 0x00, 0x00, 0x00, 0x00, 0x00, 0x00, 0x00, 0x00, 0x00, 
  0x00, 0x00, 0x00, 0x00, 0x00, 0x00, 0x00, 0x00, 0x00, 0x00, 0x00, 0x00, 
  0x00, 0x00, 0x00, 0x00, 0x00, 0x00, 0x00, 0x00, 0x00, 0x00, 0x00, 0x00, 
  0x00, 0x00, 0x00, 0x00, 0x00, 0x00, 0x00, 0x00, 0x00, 0x00, 0x00, 0x00, 
  0x00, 0x00, 0x00, 0x00, 0x00, 0x00, 0x00, 0x00, 0x80, 0x01, 0x00, 0x00, 
  0x00, 0x00, 0x00, 0x00, 0x00, 0x00, 0x80, 0x01, 0x00, 0x00, 0x00, 0x00, 
  0x00, 0x00, 0x00, 0x00, 0x80, 0x01, 0x00, 0x00, 0x00, 0x00, 0x00, 0x00, 
  0x00, 0x00, 0xFC, 0x3F, 0x00, 0x00, 0x00, 0x00, 0x00, 0x00, 0x00, 0x00, 
  0xFC, 0x3F, 0x00, 0x00, 0x00, 0x00, 0x00, 0x00, 0x00, 0x00, 0xF8, 0x1F, 
  0x00, 0x00, 0x00, 0x00, 0x00, 0x00, 0x00, 0x00, 0x80, 0x01, 0x00, 0x00, 
  0x00, 0x00, 0x00, 0x00, 0x00, 0x00, 0x80, 0x01, 0x00, 0x00, 0x00, 0x00, 
  0x00, 0x00, 0x00, 0x00, 0x80, 0x01, 0x00, 0x00, 0x00, 0x00, 0x00, 0x00, 
  0x00, 0x00, 0x80, 0x01, 0x00, 0x00, 0x00, 0x00, 0x00, 0x00, 0x00, 0x00, 
  0xC0, 0x03, 0x00, 0x00, 0x00, 0x00, 0x00, 0x00, 0x00, 0x00, 0xF0, 0x0F, 
  0x00, 0x00, 0x00, 0x00, 0x00, 0x00, 0x00, 0x00, 0xF8, 0x1F, 0x00, 0x00, 
  0x00, 0x00, 0x00, 0x00, 0x00, 0x00, 0xFC, 0x3F, 0x00, 0x00, 0x00, 0x00, 
  0x00, 0x00, 0x00, 0x00, 0xFC, 0x3F, 0x00, 0x00, 0x00, 0x00, 0x00, 0x00, 
  0x00, 0x00, 0xFE, 0x7F, 0x00, 0x00, 0x00, 0x00, 0x00, 0x00, 0x00, 0x00, 
  0xFE, 0x7F, 0x00, 0x00, 0x00, 0x00, 0x00, 0x00, 0xFC, 0x01, 0xFE, 0x7F, 
  0xC0, 0x1F, 0x00, 0x00, 0x00, 0x80, 0xFF, 0x0F, 0xFE, 0x7F, 0xFC, 0xFF, 
  0x00, 0x00, 0x00, 0xC0, 0x03, 0x3E, 0xFE, 0x7F, 0x3F, 0xC0, 0x01, 0x00, 
  0x00, 0x60, 0x00, 0xE0, 0xFE, 0xFF, 0x07, 0x00, 0x07, 0x00, 0x00, 0x30, 
  0x00, 0xC0, 0xFF, 0xFF, 0x01, 0x00, 0x0C, 0x00, 0x00, 0x18, 0xFE, 0x03, 
  0xFF, 0x7F, 0xE0, 0x7F, 0x18, 0x00, 0x00, 0x08, 0xFF, 0x0F, 0xFC, 0x3F, 
  0xF8, 0xFF, 0x10, 0x00, 0x00, 0xC4, 0xFF, 0x3F, 0xF8, 0x1F, 0xFE, 0xFF, 
  0x21, 0x00, 0x00, 0xC4, 0xFF, 0xFF, 0xF0, 0x0F, 0xFF, 0xFF, 0x23, 0x00, 
  0x00, 0xE0, 0xFF, 0xFF, 0xE1, 0xC7, 0xFF, 0xFF, 0x07, 0x00, 0x00, 0xE2, 
  0xFF, 0xFF, 0xC3, 0xC3, 0xFF, 0xFF, 0x47, 0x00, 0x00, 0xE2, 0xFF, 0xFF, 
  0x87, 0xF1, 0xFF, 0xFF, 0x47, 0x00, 0x00, 0xE2, 0xFF, 0xFF, 0x8F, 0xF1, 
  0xFF, 0xFF, 0x47, 0x00, 0x00, 0xE2, 0xFF, 0xFF, 0x1F, 0xF8, 0xFF, 0xFF, 
  0x47, 0x00, 0x00, 0xE2, 0xFF, 0xFF, 0x3F, 0xFC, 0xFF, 0xFF, 0x27, 0x00, 
  0x00, 0xC4, 0xFF, 0xFF, 0x3F, 0xFC, 0xFF, 0xFF, 0x23, 0x00, 0x00, 0xC4, 
  0xFF, 0xFF, 0x3F, 0xFC, 0xFF, 0xFF, 0x23, 0x00, 0x00, 0x8C, 0xFF, 0xFF, 
  0x3F, 0xFC, 0xFF, 0xFF, 0x11, 0x00, 0x00, 0x88, 0xFF, 0xFF, 0x3F, 0xFC, 
  0xFF, 0xFF, 0x10, 0x00, 0x00, 0x10, 0xFF, 0xFF, 0x3F, 0xFC, 0xFF, 0x7F, 
  0x08, 0x00, 0x00, 0x30, 0xFC, 0xFF, 0x7F, 0xFE, 0xFF, 0x3F, 0x0C, 0x00, 
  0x00, 0x60, 0xF8, 0x7F, 0x00, 0x80, 0xFF, 0x1F, 0x02, 0x00, 0x00, 0xC0, 
  0xF0, 0x07, 0x00, 0x00, 0xF8, 0x0F, 0x03, 0x00, 0x00, 0x80, 0x41, 0x00, 
  0x00, 0x00, 0x80, 0xC3, 0x00, 0x00, 0x00, 0x00, 0x03, 0x80, 0xFF, 0xFF, 
  0x00, 0x60, 0x00, 0x00, 0x00, 0x00, 0x04, 0xFC, 0xFF, 0xFF, 0x0F, 0x38, 
  0x00, 0x00, 0x00, 0x00, 0x00, 0xFF, 0xFF, 0xFF, 0x7F, 0x08, 0x00, 0x00, 
  0x00, 0x00, 0xE8, 0xFF, 0x01, 0xE0, 0xFF, 0x07, 0x00, 0x00, 0x00, 0x00, 
  0xF8, 0x0F, 0x00, 0x00, 0xFC, 0x07, 0x00, 0x00, 0x00, 0x00, 0xF8, 0x00, 
  0x00, 0x00, 0xC0, 0x07, 0x00, 0x00, 0x00, 0x00, 0x38, 0x00, 0xFF, 0x3F, 
  0x00, 0x07, 0x00, 0x00, 0x00, 0x00, 0x08, 0xFC, 0xFF, 0xFF, 0x0F, 0x00, 
  0x00, 0x00, 0x00, 0x00, 0x00, 0xFF, 0xFF, 0xFF, 0x3F, 0x00, 0x00, 0x00, 
  0x00, 0x00, 0xE8, 0xFF, 0x07, 0xF8, 0xFF, 0x05, 0x00, 0x00, 0x00, 0x00, 
  0xF8, 0x1F, 0x00, 0x00, 0xFE, 0x07, 0x00, 0x00, 0x00, 0x00, 0xF8, 0x00, 
  0x00, 0x00, 0xC0, 0x07, 0x00, 0x00, 0x00, 0x00, 0x38, 0x00, 0xFC, 0x0F, 
  0x00, 0x07, 0x00, 0x00, 0x00, 0x00, 0x08, 0xF8, 0xFF, 0xFF, 0x07, 0x04, 
  0x00, 0x00, 0x00, 0x00, 0x00, 0xFF, 0xFF, 0xFF, 0x3F, 0x00, 0x00, 0x00, 
  0x00, 0x00, 0xC0, 0xFF, 0xFF, 0xFF, 0xFF, 0x00, 0x00, 0x00, 0x00, 0x00, 
  0xE0, 0xFF, 0xFF, 0xFF, 0xFF, 0x03, 0x00, 0x00, 0x00, 0x00, 0x80, 0xFF, 
  0xFF, 0xFF, 0x7F, 0x00, 0x00, 0x00, 0x00, 0x00, 0x00, 0xFE, 0xFF, 0xFF, 
  0x1F, 0x00, 0x00, 0x00, 0x00, 0x00, 0x00, 0xE0, 0xFF, 0xFF, 0x01, 0x00, 
  0x00, 0x00, 0x00, 0x00, 0x00, 0x00, 0xFE, 0x1F, 0x00, 0x00, 0x00, 0x00, 
  0x00, 0x00, 0x00, 0x00, 0x00, 0x00, 0x00, 0x00, 0x00, 0x00, 0x00, 0x00, 
  0x00, 0x00, 0x00, 0x00, 0x00, 0x00, 0x00, 0x00, 0x00, 0x00, 0x00, 0x00, 
  0x00, 0x00, 0x00, 0x00, 0x00, 0x00, 0x00, 0x00, 0x00, 0x00, 0x00, 0x00, 
  0x00, 0x00, 0x00, 0x00, 0x00, 0x00, 0x00, 0x00, 0x00, 0x00, 0x00, 0x00, 
  0x00, 0x00, 0x00, 0x00, 0x00, 0x00, 0x00, 0x00, 0x00, 0x00, 0x00, 0x00, 
  0x00, 0x00, 0x00, 0x00, 0x00, 0x00, 0x00, 0x00, 0x00, 0x00, 0x00, 0x00, 
  0x00, 0x00, 0x00, 0x00, 0x00, 0x00, 0x00, 0x00, };
  