// online source

#define nwhite_width 80
#define nwhite_height 80
static char nwhite_bits[] = {
  0x00, 0x00, 0x00, 0x00, 0x00, 0x00, 0x00, 0x00, 0x00, 0x00, 0x00, 0x00, 
  0x00, 0x00, 0x00, 0x00, 0x00, 0x00, 0x00, 0x00, 0x00, 0x00, 0x00, 0x00, 
  0x00, 0x00, 0x00, 0x00, 0x00, 0x00, 0x00, 0x00, 0x00, 0x00, 0x00, 0x00, 
  0x00, 0x00, 0x00, 0x00, 0x00, 0x00, 0x00, 0x00, 0x00, 0x00, 0x00, 0x00, 
  0x00, 0x00, 0x00, 0x00, 0x00, 0x00, 0x00, 0x00, 0x00, 0x00, 0x00, 0x00, 
  0x00, 0x00, 0x00, 0x00, 0x00, 0x00, 0x00, 0x00, 0x00, 0x00, 0x00, 0x00, 
  0x00, 0x00, 0x00, 0x00, 0x00, 0x00, 0x00, 0x00, 0x00, 0x00, 0x00, 0x00, 
  0x00, 0x00, 0x00, 0x00, 0x00, 0x00, 0x00, 0x00, 0x00, 0x00, 0x00, 0x00, 
  0x00, 0x00, 0x00, 0x00, 0x00, 0x00, 0x00, 0x00, 0x00, 0x00, 0x00, 0x00, 
  0x00, 0x00, 0x00, 0x00, 0x00, 0x00, 0x30, 0x00, 0x00, 0x00, 0x00, 0x00, 
  0x00, 0x00, 0x80, 0x07, 0xF8, 0x00, 0x00, 0x00, 0x00, 0x00, 0x00, 0x00, 
  0x80, 0x0F, 0xFC, 0x00, 0x00, 0x00, 0x00, 0x00, 0x00, 0x00, 0x80, 0x1F, 
  0xDE, 0x00, 0x00, 0x00, 0x00, 0x00, 0x00, 0x00, 0x80, 0x1D, 0xCE, 0x00, 
  0x00, 0x00, 0x00, 0x00, 0x00, 0x00, 0x80, 0xF9, 0xC7, 0x00, 0x00, 0x00, 
  0x00, 0x00, 0x00, 0x00, 0x80, 0xF3, 0xC3, 0x1F, 0x00, 0x00, 0x00, 0x00, 
  0x00, 0x00, 0x80, 0xF3, 0xC3, 0xFF, 0x01, 0x00, 0x00, 0x00, 0x00, 0x00, 
  0x80, 0x03, 0x00, 0xFE, 0x07, 0x00, 0x00, 0x00, 0x00, 0x00, 0x80, 0x03, 
  0x00, 0xC0, 0x1F, 0x00, 0x00, 0x00, 0x00, 0x00, 0xC0, 0x03, 0x00, 0x00, 
  0x3E, 0x00, 0x00, 0x00, 0x00, 0x00, 0xC0, 0x01, 0x00, 0x00, 0xF8, 0x00, 
  0x00, 0x00, 0x00, 0x00, 0xE0, 0x00, 0x00, 0x00, 0xF0, 0x01, 0x00, 0x00, 
  0x00, 0x00, 0x70, 0x0E, 0x00, 0x00, 0xC0, 0x03, 0x00, 0x00, 0x00, 0x00, 
  0x70, 0x0F, 0x00, 0x00, 0x80, 0x07, 0x00, 0x00, 0x00, 0x00, 0x38, 0x0F, 
  0x00, 0x00, 0x00, 0x0F, 0x00, 0x00, 0x00, 0x00, 0xBC, 0x0F, 0x00, 0x00, 
  0x00, 0x0E, 0x00, 0x00, 0x00, 0x00, 0x9C, 0x0F, 0x00, 0x00, 0x00, 0x1C, 
  0x00, 0x00, 0x00, 0x00, 0x8E, 0x07, 0x00, 0x00, 0x00, 0x3C, 0x00, 0x00, 
  0x00, 0x00, 0x8F, 0x03, 0x00, 0x00, 0x00, 0x38, 0x00, 0x00, 0x00, 0x00, 
  0x07, 0x00, 0x00, 0x0C, 0x00, 0x70, 0x00, 0x00, 0x00, 0x80, 0x03, 0x00, 
  0x00, 0x0E, 0x00, 0xF0, 0x00, 0x00, 0x00, 0x80, 0x03, 0x00, 0x00, 0x0E, 
  0x00, 0xE0, 0x00, 0x00, 0x00, 0xC0, 0x01, 0x00, 0x00, 0x0E, 0x00, 0xC0, 
  0x00, 0x00, 0x00, 0xC0, 0x01, 0x00, 0x00, 0x07, 0x00, 0xC0, 0x01, 0x00, 
  0x00, 0xE0, 0x00, 0x00, 0x00, 0x07, 0x00, 0xC0, 0x01, 0x00, 0x00, 0xE0, 
  0x00, 0x00, 0x80, 0x07, 0x00, 0xC0, 0x01, 0x00, 0x00, 0x70, 0x00, 0x00, 
  0xC0, 0x07, 0x00, 0x80, 0x03, 0x00, 0x00, 0x70, 0x00, 0x00, 0xE0, 0x07, 
  0x00, 0x80, 0x03, 0x00, 0x00, 0x38, 0x00, 0x00, 0xF0, 0x07, 0x00, 0x00, 
  0x03, 0x00, 0x00, 0x38, 0x00, 0x00, 0x78, 0x03, 0x00, 0x00, 0x03, 0x00, 
  0x00, 0x1C, 0x00, 0x00, 0x3C, 0x03, 0x00, 0x00, 0x07, 0x00, 0x00, 0x9C, 
  0x01, 0x00, 0x1F, 0x03, 0x00, 0x00, 0x07, 0x00, 0x00, 0xCC, 0x03, 0x80, 
  0x87, 0x03, 0x00, 0x00, 0x07, 0x00, 0x00, 0xCC, 0x03, 0xC0, 0x83, 0x03, 
  0x00, 0x00, 0x06, 0x00, 0x00, 0xCE, 0x03, 0xF0, 0x81, 0x03, 0x00, 0x00, 
  0x0E, 0x00, 0x00, 0x8E, 0x01, 0xF8, 0xC0, 0x01, 0x00, 0x00, 0x0E, 0x00, 
  0x00, 0x0C, 0x08, 0x3C, 0xC0, 0x01, 0x00, 0x00, 0x0E, 0x00, 0x00, 0x0C, 
  0x3C, 0x1E, 0xE0, 0x00, 0x00, 0x00, 0x0E, 0x00, 0x00, 0x1C, 0x3C, 0x07, 
  0xF0, 0x00, 0x00, 0x00, 0x0C, 0x00, 0x00, 0x1C, 0xBC, 0x03, 0x70, 0x00, 
  0x00, 0x00, 0x0C, 0x00, 0x00, 0xF8, 0xDF, 0x03, 0x38, 0x00, 0x00, 0x00, 
  0x0C, 0x00, 0x00, 0xF0, 0xCF, 0x01, 0x3C, 0x00, 0x00, 0x00, 0x0C, 0x00, 
  0x00, 0xC0, 0xFF, 0x00, 0x1E, 0x00, 0x00, 0x00, 0x0C, 0x00, 0x00, 0x00, 
  0x7C, 0x00, 0x0F, 0x00, 0x00, 0x00, 0x1C, 0x00, 0x00, 0x00, 0x00, 0x80, 
  0x07, 0x00, 0x00, 0x00, 0x1C, 0x00, 0x00, 0x00, 0x00, 0xC0, 0x03, 0x00, 
  0x00, 0x00, 0x1C, 0x00, 0x00, 0x00, 0x00, 0xE0, 0x01, 0x00, 0x00, 0x00, 
  0x1C, 0x00, 0x00, 0x00, 0x00, 0xF0, 0x00, 0x00, 0x00, 0x00, 0x1C, 0x00, 
  0x00, 0x00, 0x00, 0x70, 0x00, 0x00, 0x00, 0x00, 0x1C, 0x00, 0x00, 0x00, 
  0x00, 0x38, 0x00, 0x00, 0x00, 0x00, 0x1C, 0x00, 0x00, 0x00, 0x00, 0x3C, 
  0x00, 0x00, 0x00, 0x00, 0x1C, 0x00, 0x00, 0x00, 0x00, 0x1C, 0x00, 0x00, 
  0x00, 0x00, 0x1C, 0x00, 0x00, 0x00, 0x00, 0x1C, 0x00, 0x00, 0x00, 0x00, 
  0x1C, 0x00, 0x00, 0x00, 0x00, 0x0C, 0x00, 0x00, 0x00, 0x00, 0x1C, 0x00, 
  0x00, 0x00, 0x00, 0x0C, 0x00, 0x00, 0x00, 0x00, 0x1C, 0x00, 0x00, 0x00, 
  0x00, 0x0C, 0x00, 0x00, 0x00, 0x00, 0x1C, 0x00, 0x00, 0x00, 0x00, 0xFE, 
  0xFF, 0xFF, 0xFF, 0xFF, 0x1F, 0x00, 0x00, 0x00, 0x00, 0xFE, 0xFF, 0xFF, 
  0xFF, 0xFF, 0x1F, 0x00, 0x00, 0x00, 0x00, 0xFC, 0xFF, 0xFF, 0xFF, 0xFF, 
  0x0F, 0x00, 0x00, 0x00, 0x00, 0x00, 0x00, 0x00, 0x00, 0x00, 0x00, 0x00, 
  0x00, 0x00, 0x00, 0x00, 0x00, 0x00, 0x00, 0x00, 0x00, 0x00, 0x00, 0x00, 
  0x00, 0x00, 0x00, 0x00, 0x00, 0x00, 0x00, 0x00, 0x00, 0x00, 0x00, 0x00, 
  0x00, 0x00, 0x00, 0x00, 0x00, 0x00, 0x00, 0x00, 0x00, 0x00, 0x00, 0x00, 
  0x00, 0x00, 0x00, 0x00, 0x00, 0x00, 0x00, 0x00, 0x00, 0x00, 0x00, 0x00, 
  0x00, 0x00, 0x00, 0x00, 0x00, 0x00, 0x00, 0x00, 0x00, 0x00, 0x00, 0x00, 
  0x00, 0x00, 0x00, 0x00, 0x00, 0x00, 0x00, 0x00, 0x00, 0x00, 0x00, 0x00, 
  0x00, 0x00, 0x00, 0x00, 0x00, 0x00, 0x00, 0x00, };
  