// online source 

#define qwhite_width 80
#define qwhite_height 80
static char qwhite_bits[] = {
  0x00, 0x00, 0x00, 0x00, 0x00, 0x00, 0x00, 0x00, 0x00, 0x00, 0x00, 0x00, 
  0x00, 0x00, 0x00, 0x00, 0x00, 0x00, 0x00, 0x00, 0x00, 0x00, 0x00, 0x00, 
  0x00, 0x00, 0x00, 0x00, 0x00, 0x00, 0x00, 0x00, 0x00, 0x00, 0x00, 0x00, 
  0x00, 0x00, 0x00, 0x00, 0x00, 0x00, 0x00, 0x00, 0x00, 0x00, 0x00, 0x00, 
  0x00, 0x00, 0x00, 0x00, 0x00, 0x00, 0x00, 0x00, 0x00, 0x00, 0x00, 0x00, 
  0x00, 0x00, 0x00, 0x00, 0x00, 0x00, 0x00, 0x00, 0x00, 0x00, 0x00, 0x00, 
  0x00, 0x00, 0x00, 0x00, 0x00, 0x00, 0x00, 0x00, 0x00, 0x00, 0x00, 0x00, 
  0x80, 0x01, 0x00, 0x00, 0x00, 0x00, 0x00, 0x00, 0x00, 0x00, 0xE0, 0x07, 
  0x00, 0x00, 0x00, 0x00, 0x00, 0x00, 0x80, 0x07, 0xF0, 0x0F, 0x00, 0x00, 
  0x00, 0x00, 0x00, 0x00, 0xC0, 0x0F, 0x70, 0x0E, 0xC0, 0x01, 0x00, 0x00, 
  0x00, 0x00, 0xE0, 0x1F, 0x38, 0x1C, 0xF0, 0x07, 0x00, 0x00, 0x00, 0x00, 
  0xF0, 0x3C, 0x38, 0x1C, 0xF8, 0x07, 0x00, 0x00, 0x00, 0x00, 0x70, 0x38, 
  0x38, 0x1C, 0x3C, 0x0E, 0x00, 0x00, 0x00, 0x00, 0x70, 0x38, 0x70, 0x0E, 
  0x1C, 0x0E, 0x00, 0x00, 0x00, 0x0C, 0x70, 0x3C, 0xF0, 0x0F, 0x1C, 0x0E, 
  0x30, 0x00, 0x00, 0x3F, 0xF0, 0x1F, 0xE0, 0x07, 0x3C, 0x0E, 0xFC, 0x00, 
  0x80, 0x7F, 0xC0, 0x0F, 0xC0, 0x03, 0xF8, 0x07, 0xFE, 0x01, 0xC0, 0x73, 
  0xC0, 0x07, 0xC0, 0x03, 0xF0, 0x03, 0xCE, 0x03, 0xC0, 0xE0, 0x00, 0x07, 
  0xC0, 0x03, 0xE0, 0x01, 0x07, 0x03, 0xC0, 0xE0, 0x00, 0x0F, 0xC0, 0x03, 
  0xE0, 0x00, 0x07, 0x03, 0xC0, 0x71, 0x00, 0x0F, 0xC0, 0x03, 0xF0, 0x00, 
  0x8E, 0x03, 0xC0, 0x73, 0x00, 0x0F, 0xE0, 0x07, 0xF0, 0x00, 0xCE, 0x03, 
  0x80, 0x3F, 0x00, 0x1F, 0xE0, 0x07, 0xF0, 0x00, 0xFC, 0x01, 0x00, 0x3F, 
  0x00, 0x1F, 0xE0, 0x07, 0xF8, 0x00, 0xFC, 0x00, 0x00, 0x78, 0x00, 0x3F, 
  0xE0, 0x07, 0xF8, 0x00, 0x1E, 0x00, 0x00, 0xF0, 0x00, 0x3B, 0x70, 0x0E, 
  0xDC, 0x00, 0x0F, 0x00, 0x00, 0xF0, 0x00, 0x3B, 0x70, 0x0E, 0xDC, 0x00, 
  0x0F, 0x00, 0x00, 0xF0, 0x01, 0x33, 0x70, 0x0E, 0xCC, 0x80, 0x0F, 0x00, 
  0x00, 0xF0, 0x03, 0x73, 0x70, 0x0E, 0xCE, 0xC0, 0x0F, 0x00, 0x00, 0xF0, 
  0x03, 0x73, 0x30, 0x0C, 0xCE, 0xC0, 0x0F, 0x00, 0x00, 0x70, 0x07, 0xE3, 
  0x30, 0x0C, 0xC7, 0xE0, 0x0E, 0x00, 0x00, 0x70, 0x0F, 0xE3, 0x38, 0x1C, 
  0xC7, 0xF0, 0x0E, 0x00, 0x00, 0xE0, 0x0E, 0xC3, 0x38, 0x1C, 0xC3, 0x70, 
  0x07, 0x00, 0x00, 0xE0, 0x1C, 0xC3, 0x39, 0x9C, 0xC3, 0x38, 0x07, 0x00, 
  0x00, 0xE0, 0x3C, 0xC3, 0x39, 0x9C, 0xC3, 0x3C, 0x07, 0x00, 0x00, 0xE0, 
  0x38, 0x83, 0x1F, 0xF8, 0xC1, 0x1C, 0x07, 0x00, 0x00, 0xE0, 0x70, 0x83, 
  0x1F, 0xF8, 0xC1, 0x0E, 0x07, 0x00, 0x00, 0xC0, 0x70, 0x03, 0x1F, 0xF8, 
  0xC0, 0x0E, 0x03, 0x00, 0x00, 0xC0, 0xE0, 0x03, 0x1F, 0xF8, 0xC0, 0x07, 
  0x03, 0x00, 0x00, 0xC0, 0xE0, 0x03, 0x0F, 0xF0, 0xC0, 0x07, 0x03, 0x00, 
  0x00, 0xC0, 0xC1, 0x03, 0x0E, 0x70, 0xC0, 0x83, 0x03, 0x00, 0x00, 0xC0, 
  0x81, 0xFB, 0xFF, 0xFF, 0xFF, 0x81, 0x03, 0x00, 0x00, 0xC0, 0xFF, 0xFF, 
  0xFF, 0xFF, 0xFF, 0xFF, 0x03, 0x00, 0x00, 0xC0, 0xFF, 0xFF, 0xFF, 0xFF, 
  0xFF, 0xFF, 0x03, 0x00, 0x00, 0x80, 0x7F, 0x00, 0x00, 0x00, 0x00, 0xFE, 
  0x01, 0x00, 0x00, 0x80, 0x03, 0x00, 0x00, 0x00, 0x00, 0xC0, 0x01, 0x00, 
  0x00, 0x80, 0x03, 0x00, 0x00, 0x00, 0x00, 0xC0, 0x01, 0x00, 0x00, 0x00, 
  0x07, 0x00, 0x00, 0x00, 0x00, 0xE0, 0x00, 0x00, 0x00, 0x00, 0x0F, 0x00, 
  0x00, 0x00, 0x00, 0xF0, 0x00, 0x00, 0x00, 0x00, 0x1E, 0xFF, 0xFF, 0xFF, 
  0xFF, 0x78, 0x00, 0x00, 0x00, 0x00, 0xFC, 0xFF, 0xFF, 0xFF, 0xFF, 0x3F, 
  0x00, 0x00, 0x00, 0x00, 0xF8, 0xFF, 0x0F, 0xF0, 0xFF, 0x1F, 0x00, 0x00, 
  0x00, 0x00, 0x70, 0x00, 0x00, 0x00, 0x00, 0x0E, 0x00, 0x00, 0x00, 0x00, 
  0x70, 0x00, 0x00, 0x00, 0x00, 0x0E, 0x00, 0x00, 0x00, 0x00, 0x70, 0x00, 
  0x00, 0x00, 0x00, 0x0E, 0x00, 0x00, 0x00, 0x00, 0x70, 0xF0, 0xFF, 0xFF, 
  0x0F, 0x0E, 0x00, 0x00, 0x00, 0x00, 0xF0, 0xFF, 0xFF, 0xFF, 0xFF, 0x0F, 
  0x00, 0x00, 0x00, 0x00, 0xF0, 0xFF, 0xFF, 0xFF, 0xFF, 0x0F, 0x00, 0x00, 
  0x00, 0x00, 0xFC, 0x00, 0x00, 0x00, 0x00, 0x1F, 0x00, 0x00, 0x00, 0x00, 
  0x1C, 0x00, 0x00, 0x00, 0x00, 0x38, 0x00, 0x00, 0x00, 0x00, 0x0C, 0x00, 
  0x00, 0x00, 0x00, 0x38, 0x00, 0x00, 0x00, 0x00, 0x0E, 0x00, 0x00, 0x00, 
  0x00, 0x38, 0x00, 0x00, 0x00, 0x00, 0x0E, 0x00, 0x00, 0x00, 0x00, 0x38, 
  0x00, 0x00, 0x00, 0x00, 0x07, 0x00, 0x00, 0x00, 0x00, 0x70, 0x00, 0x00, 
  0x00, 0x00, 0x07, 0x00, 0x00, 0x00, 0x00, 0x70, 0x00, 0x00, 0x00, 0x00, 
  0x3E, 0x00, 0x00, 0x00, 0x00, 0x7C, 0x00, 0x00, 0x00, 0x00, 0xFC, 0xFF, 
  0xFF, 0xFF, 0xFF, 0x3F, 0x00, 0x00, 0x00, 0x00, 0xFC, 0xFF, 0xFF, 0xFF, 
  0xFF, 0x1F, 0x00, 0x00, 0x00, 0x00, 0x00, 0xF8, 0xFF, 0xFF, 0x1F, 0x00, 
  0x00, 0x00, 0x00, 0x00, 0x00, 0x00, 0x00, 0x00, 0x00, 0x00, 0x00, 0x00, 
  0x00, 0x00, 0x00, 0x00, 0x00, 0x00, 0x00, 0x00, 0x00, 0x00, 0x00, 0x00, 
  0x00, 0x00, 0x00, 0x00, 0x00, 0x00, 0x00, 0x00, 0x00, 0x00, 0x00, 0x00, 
  0x00, 0x00, 0x00, 0x00, 0x00, 0x00, 0x00, 0x00, 0x00, 0x00, 0x00, 0x00, 
  0x00, 0x00, 0x00, 0x00, 0x00, 0x00, 0x00, 0x00, 0x00, 0x00, 0x00, 0x00, 
  0x00, 0x00, 0x00, 0x00, 0x00, 0x00, 0x00, 0x00, 0x00, 0x00, 0x00, 0x00, 
  0x00, 0x00, 0x00, 0x00, 0x00, 0x00, 0x00, 0x00, 0x00, 0x00, 0x00, 0x00, 
  0x00, 0x00, 0x00, 0x00, 0x00, 0x00, 0x00, 0x00, };
  